ISO-10303-21;
HEADER;
FILE_DESCRIPTION(('FreeCAD Model'),'2;1');
FILE_NAME('Open CASCADE Shape Model','2026-09-14T10:55:21',(''),(''),
  'Open CASCADE STEP processor 7.8','FreeCAD','Unknown');
FILE_SCHEMA(('CONFIG_CONTROL_DESIGN','SHAPE_APPEARANCE_LAYER_MIM'));
ENDSEC;
DATA;
#1 = APPLICATION_PROTOCOL_DEFINITION('international standard',
  'config_control_design',1994,#2);
#2 = APPLICATION_CONTEXT(
'configuration controlled 3D designs of mechanical parts and assemblies'
  );
#3 = SHAPE_DEFINITION_REPRESENTATION(#4,#10);
#4 = PRODUCT_DEFINITION_SHAPE('','',#5);
#5 = PRODUCT_DEFINITION('design','',#6,#9);
#6 = PRODUCT_DEFINITION_FORMATION_WITH_SPECIFIED_SOURCE('','',#7,
  .NOT_KNOWN.);
#7 = PRODUCT('Assembly','Assembly','',(#8));
#8 = MECHANICAL_CONTEXT('',#2,'mechanical');
#9 = DESIGN_CONTEXT('',#2,'design');
#10 = SHAPE_REPRESENTATION('',(#11,#15,#19,#23,#27,#31),#35);
#11 = AXIS2_PLACEMENT_3D('',#12,#13,#14);
#12 = CARTESIAN_POINT('',(0.,0.,0.));
#13 = DIRECTION('',(0.,0.,1.));
#14 = DIRECTION('',(1.,0.,-0.));
#15 = AXIS2_PLACEMENT_3D('',#16,#17,#18);
#16 = CARTESIAN_POINT('',(0.,0.,0.));
#17 = DIRECTION('',(0.,0.,1.));
#18 = DIRECTION('',(1.,0.,0.));
#19 = AXIS2_PLACEMENT_3D('',#20,#21,#22);
#20 = CARTESIAN_POINT('',(-1.122409216796E-13,25.,-145.));
#21 = DIRECTION('',(0.,0.,1.));
#22 = DIRECTION('',(1.,0.,0.));
#23 = AXIS2_PLACEMENT_3D('',#24,#25,#26);
#24 = CARTESIAN_POINT('',(-1.230517763948E-13,-30.,-145.));
#25 = DIRECTION('',(0.,0.,1.));
#26 = DIRECTION('',(1.,0.,0.));
#27 = AXIS2_PLACEMENT_3D('',#28,#29,#30);
#28 = CARTESIAN_POINT('',(5.238946295135E-14,2.018864313712E-13,
    737.99999999997));
#29 = DIRECTION('',(0.,6.661338147751E-16,-1.));
#30 = DIRECTION('',(1.,0.,0.));
#31 = AXIS2_PLACEMENT_3D('',#32,#33,#34);
#32 = CARTESIAN_POINT('',(-1.11673121896E-29,70.,873.));
#33 = DIRECTION('',(0.,0.,-1.));
#34 = DIRECTION('',(-1.,8.881784197001E-16,0.));
#35 = ( GEOMETRIC_REPRESENTATION_CONTEXT(3) 
GLOBAL_UNCERTAINTY_ASSIGNED_CONTEXT((#39)) GLOBAL_UNIT_ASSIGNED_CONTEXT(
(#36,#37,#38)) REPRESENTATION_CONTEXT('Context #1',
  '3D Context with UNIT and UNCERTAINTY') );
#36 = ( LENGTH_UNIT() NAMED_UNIT(*) SI_UNIT(.MILLI.,.METRE.) );
#37 = ( NAMED_UNIT(*) PLANE_ANGLE_UNIT() SI_UNIT($,.RADIAN.) );
#38 = ( NAMED_UNIT(*) SI_UNIT($,.STERADIAN.) SOLID_ANGLE_UNIT() );
#39 = UNCERTAINTY_MEASURE_WITH_UNIT(LENGTH_MEASURE(1.E-07),#36,
  'distance_accuracy_value','confusion accuracy');
#40 = PRODUCT_RELATED_PRODUCT_CATEGORY('detail',$,(#7));
#41 = PRODUCT_CATEGORY_RELATIONSHIP('','',#42,#40);
#42 = PRODUCT_CATEGORY('part',$);
#43 = CC_DESIGN_PERSON_AND_ORGANIZATION_ASSIGNMENT(#44,#47,(#6,#5));
#44 = PERSON_AND_ORGANIZATION(#45,#46);
#45 = PERSON('IP192.168.0,geyderson.costa','','geyderson.costa',$,$,$);
#46 = ORGANIZATION('IP192.168.0','Unspecified','');
#47 = PERSON_AND_ORGANIZATION_ROLE('creator');
#48 = CC_DESIGN_PERSON_AND_ORGANIZATION_ASSIGNMENT(#44,#49,(#7));
#49 = PERSON_AND_ORGANIZATION_ROLE('design_owner');
#50 = CC_DESIGN_PERSON_AND_ORGANIZATION_ASSIGNMENT(#44,#51,(#6));
#51 = PERSON_AND_ORGANIZATION_ROLE('design_supplier');
#52 = CC_DESIGN_PERSON_AND_ORGANIZATION_ASSIGNMENT(#44,#53,(#54));
#53 = PERSON_AND_ORGANIZATION_ROLE('classification_officer');
#54 = SECURITY_CLASSIFICATION('','',#55);
#55 = SECURITY_CLASSIFICATION_LEVEL('unclassified');
#56 = CC_DESIGN_SECURITY_CLASSIFICATION(#54,(#6));
#57 = CC_DESIGN_DATE_AND_TIME_ASSIGNMENT(#58,#62,(#5));
#58 = DATE_AND_TIME(#59,#60);
#59 = CALENDAR_DATE(2026,14,9);
#60 = LOCAL_TIME(10,55,$,#61);
#61 = COORDINATED_UNIVERSAL_TIME_OFFSET(3,$,.BEHIND.);
#62 = DATE_TIME_ROLE('creation_date');
#63 = CC_DESIGN_DATE_AND_TIME_ASSIGNMENT(#58,#64,(#54));
#64 = DATE_TIME_ROLE('classification_date');
#65 = CC_DESIGN_APPROVAL(#66,(#6,#5,#54));
#66 = APPROVAL(#67,'');
#67 = APPROVAL_STATUS('not_yet_approved');
#68 = APPROVAL_PERSON_ORGANIZATION(#44,#66,#69);
#69 = APPROVAL_ROLE('approver');
#70 = APPROVAL_DATE_TIME(#58,#66);
#71 = SHAPE_DEFINITION_REPRESENTATION(#72,#78);
#72 = PRODUCT_DEFINITION_SHAPE('','',#73);
#73 = PRODUCT_DEFINITION('design','',#74,#77);
#74 = PRODUCT_DEFINITION_FORMATION_WITH_SPECIFIED_SOURCE('','',#75,
  .NOT_KNOWN.);
#75 = PRODUCT('Body','Body','',(#76));
#76 = MECHANICAL_CONTEXT('',#2,'mechanical');
#77 = DESIGN_CONTEXT('',#2,'design');
#78 = ADVANCED_BREP_SHAPE_REPRESENTATION('',(#11,#79),#579);
#79 = MANIFOLD_SOLID_BREP('',#80);
#80 = CLOSED_SHELL('',(#81,#121,#152,#183,#216,#247,#280,#311,#344,#375,
    #406,#439,#461,#494,#527,#553));
#81 = ADVANCED_FACE('',(#82),#116,.T.);
#82 = FACE_BOUND('',#83,.T.);
#83 = EDGE_LOOP('',(#84,#94,#102,#110));
#84 = ORIENTED_EDGE('',*,*,#85,.T.);
#85 = EDGE_CURVE('',#86,#88,#90,.T.);
#86 = VERTEX_POINT('',#87);
#87 = CARTESIAN_POINT('',(90.,9.E-15,40.));
#88 = VERTEX_POINT('',#89);
#89 = CARTESIAN_POINT('',(90.,-30.,40.));
#90 = LINE('',#91,#92);
#91 = CARTESIAN_POINT('',(90.,8.88E-15,40.));
#92 = VECTOR('',#93,1.);
#93 = DIRECTION('',(0.,-1.,2.2E-16));
#94 = ORIENTED_EDGE('',*,*,#95,.T.);
#95 = EDGE_CURVE('',#88,#96,#98,.T.);
#96 = VERTEX_POINT('',#97);
#97 = CARTESIAN_POINT('',(90.,-30.,7.E-15));
#98 = LINE('',#99,#100);
#99 = CARTESIAN_POINT('',(90.,-30.,40.));
#100 = VECTOR('',#101,1.);
#101 = DIRECTION('',(0.,0.,-1.));
#102 = ORIENTED_EDGE('',*,*,#103,.F.);
#103 = EDGE_CURVE('',#104,#96,#106,.T.);
#104 = VERTEX_POINT('',#105);
#105 = CARTESIAN_POINT('',(90.,0.,0.));
#106 = LINE('',#107,#108);
#107 = CARTESIAN_POINT('',(90.,0.,0.));
#108 = VECTOR('',#109,1.);
#109 = DIRECTION('',(0.,-1.,2.2E-16));
#110 = ORIENTED_EDGE('',*,*,#111,.F.);
#111 = EDGE_CURVE('',#86,#104,#112,.T.);
#112 = LINE('',#113,#114);
#113 = CARTESIAN_POINT('',(90.,0.,40.));
#114 = VECTOR('',#115,1.);
#115 = DIRECTION('',(0.,0.,-1.));
#116 = PLANE('',#117);
#117 = AXIS2_PLACEMENT_3D('',#118,#119,#120);
#118 = CARTESIAN_POINT('',(90.,8.88E-15,40.));
#119 = DIRECTION('',(1.,0.,0.));
#120 = DIRECTION('',(0.,-2.2E-16,-1.));
#121 = ADVANCED_FACE('',(#122),#147,.T.);
#122 = FACE_BOUND('',#123,.T.);
#123 = EDGE_LOOP('',(#124,#125,#133,#141));
#124 = ORIENTED_EDGE('',*,*,#103,.T.);
#125 = ORIENTED_EDGE('',*,*,#126,.T.);
#126 = EDGE_CURVE('',#96,#127,#129,.T.);
#127 = VERTEX_POINT('',#128);
#128 = CARTESIAN_POINT('',(-90.,-30.,7.E-15));
#129 = LINE('',#130,#131);
#130 = CARTESIAN_POINT('',(90.,-30.,7.E-15));
#131 = VECTOR('',#132,1.);
#132 = DIRECTION('',(-1.,0.,0.));
#133 = ORIENTED_EDGE('',*,*,#134,.F.);
#134 = EDGE_CURVE('',#135,#127,#137,.T.);
#135 = VERTEX_POINT('',#136);
#136 = CARTESIAN_POINT('',(-90.,0.,0.));
#137 = LINE('',#138,#139);
#138 = CARTESIAN_POINT('',(-90.,0.,0.));
#139 = VECTOR('',#140,1.);
#140 = DIRECTION('',(0.,-1.,2.2E-16));
#141 = ORIENTED_EDGE('',*,*,#142,.F.);
#142 = EDGE_CURVE('',#104,#135,#143,.T.);
#143 = LINE('',#144,#145);
#144 = CARTESIAN_POINT('',(90.,0.,0.));
#145 = VECTOR('',#146,1.);
#146 = DIRECTION('',(-1.,0.,0.));
#147 = PLANE('',#148);
#148 = AXIS2_PLACEMENT_3D('',#149,#150,#151);
#149 = CARTESIAN_POINT('',(90.,0.,0.));
#150 = DIRECTION('',(-0.,-2.2E-16,-1.));
#151 = DIRECTION('',(-1.,0.,0.));
#152 = ADVANCED_FACE('',(#153),#178,.T.);
#153 = FACE_BOUND('',#154,.T.);
#154 = EDGE_LOOP('',(#155,#156,#164,#172));
#155 = ORIENTED_EDGE('',*,*,#134,.T.);
#156 = ORIENTED_EDGE('',*,*,#157,.T.);
#157 = EDGE_CURVE('',#127,#158,#160,.T.);
#158 = VERTEX_POINT('',#159);
#159 = CARTESIAN_POINT('',(-90.,-30.,808.));
#160 = LINE('',#161,#162);
#161 = CARTESIAN_POINT('',(-90.,-30.,7.E-15));
#162 = VECTOR('',#163,1.);
#163 = DIRECTION('',(0.,0.,1.));
#164 = ORIENTED_EDGE('',*,*,#165,.F.);
#165 = EDGE_CURVE('',#166,#158,#168,.T.);
#166 = VERTEX_POINT('',#167);
#167 = CARTESIAN_POINT('',(-90.,1.79E-13,808.));
#168 = LINE('',#169,#170);
#169 = CARTESIAN_POINT('',(-90.,1.7941E-13,808.));
#170 = VECTOR('',#171,1.);
#171 = DIRECTION('',(0.,-1.,2.2E-16));
#172 = ORIENTED_EDGE('',*,*,#173,.F.);
#173 = EDGE_CURVE('',#135,#166,#174,.T.);
#174 = LINE('',#175,#176);
#175 = CARTESIAN_POINT('',(-90.,0.,0.));
#176 = VECTOR('',#177,1.);
#177 = DIRECTION('',(0.,0.,1.));
#178 = PLANE('',#179);
#179 = AXIS2_PLACEMENT_3D('',#180,#181,#182);
#180 = CARTESIAN_POINT('',(-90.,0.,0.));
#181 = DIRECTION('',(-1.,0.,0.));
#182 = DIRECTION('',(0.,2.2E-16,1.));
#183 = ADVANCED_FACE('',(#184),#211,.T.);
#184 = FACE_BOUND('',#185,.F.);
#185 = EDGE_LOOP('',(#186,#196,#203,#204));
#186 = ORIENTED_EDGE('',*,*,#187,.T.);
#187 = EDGE_CURVE('',#188,#190,#192,.T.);
#188 = VERTEX_POINT('',#189);
#189 = CARTESIAN_POINT('',(-80.38461538461,1.84E-13,827.70567454992));
#190 = VERTEX_POINT('',#191);
#191 = CARTESIAN_POINT('',(-80.38461538461,-30.,827.70567454992));
#192 = LINE('',#193,#194);
#193 = CARTESIAN_POINT('',(-80.38461538461,1.8379E-13,827.70567454992));
#194 = VECTOR('',#195,1.);
#195 = DIRECTION('',(0.,-1.,2.2E-16));
#196 = ORIENTED_EDGE('',*,*,#197,.T.);
#197 = EDGE_CURVE('',#190,#158,#198,.T.);
#198 = CIRCLE('',#199,25.);
#199 = AXIS2_PLACEMENT_3D('',#200,#201,#202);
#200 = CARTESIAN_POINT('',(-65.,-30.,808.));
#201 = DIRECTION('',(0.,-1.,0.));
#202 = DIRECTION('',(1.,0.,0.));
#203 = ORIENTED_EDGE('',*,*,#165,.F.);
#204 = ORIENTED_EDGE('',*,*,#205,.F.);
#205 = EDGE_CURVE('',#188,#166,#206,.T.);
#206 = CIRCLE('',#207,25.);
#207 = AXIS2_PLACEMENT_3D('',#208,#209,#210);
#208 = CARTESIAN_POINT('',(-65.,0.,808.));
#209 = DIRECTION('',(0.,-1.,0.));
#210 = DIRECTION('',(1.,0.,0.));
#211 = CYLINDRICAL_SURFACE('',#212,25.);
#212 = AXIS2_PLACEMENT_3D('',#213,#214,#215);
#213 = CARTESIAN_POINT('',(-65.,1.7941E-13,808.));
#214 = DIRECTION('',(0.,1.,-2.2E-16));
#215 = DIRECTION('',(1.,0.,0.));
#216 = ADVANCED_FACE('',(#217),#242,.T.);
#217 = FACE_BOUND('',#218,.T.);
#218 = EDGE_LOOP('',(#219,#220,#228,#236));
#219 = ORIENTED_EDGE('',*,*,#187,.T.);
#220 = ORIENTED_EDGE('',*,*,#221,.T.);
#221 = EDGE_CURVE('',#190,#222,#224,.T.);
#222 = VERTEX_POINT('',#223);
#223 = CARTESIAN_POINT('',(-40.,-30.,859.23475382979));
#224 = LINE('',#225,#226);
#225 = CARTESIAN_POINT('',(-80.38461538461,-30.,827.70567454992));
#226 = VECTOR('',#227,1.);
#227 = DIRECTION('',(0.788226981997,0.,0.615384615385));
#228 = ORIENTED_EDGE('',*,*,#229,.F.);
#229 = EDGE_CURVE('',#230,#222,#232,.T.);
#230 = VERTEX_POINT('',#231);
#231 = CARTESIAN_POINT('',(-40.,1.91E-13,859.23475382979));
#232 = LINE('',#233,#234);
#233 = CARTESIAN_POINT('',(-40.,1.9079E-13,859.23475382979));
#234 = VECTOR('',#235,1.);
#235 = DIRECTION('',(0.,-1.,2.2E-16));
#236 = ORIENTED_EDGE('',*,*,#237,.F.);
#237 = EDGE_CURVE('',#188,#230,#238,.T.);
#238 = LINE('',#239,#240);
#239 = CARTESIAN_POINT('',(-80.38461538461,0.,827.70567454992));
#240 = VECTOR('',#241,1.);
#241 = DIRECTION('',(0.788226981997,0.,0.615384615385));
#242 = PLANE('',#243);
#243 = AXIS2_PLACEMENT_3D('',#244,#245,#246);
#244 = CARTESIAN_POINT('',(-80.38461538461,1.8379E-13,827.70567454992));
#245 = DIRECTION('',(-0.615384615385,1.8E-16,0.788226981997));
#246 = DIRECTION('',(0.788226981997,1.4E-16,0.615384615385));
#247 = ADVANCED_FACE('',(#248),#275,.T.);
#248 = FACE_BOUND('',#249,.F.);
#249 = EDGE_LOOP('',(#250,#260,#267,#268));
#250 = ORIENTED_EDGE('',*,*,#251,.T.);
#251 = EDGE_CURVE('',#252,#254,#256,.T.);
#252 = VERTEX_POINT('',#253);
#253 = CARTESIAN_POINT('',(40.,1.91E-13,859.23475382979));
#254 = VERTEX_POINT('',#255);
#255 = CARTESIAN_POINT('',(40.,-30.,859.23475382979));
#256 = LINE('',#257,#258);
#257 = CARTESIAN_POINT('',(40.,1.9079E-13,859.23475382979));
#258 = VECTOR('',#259,1.);
#259 = DIRECTION('',(0.,-1.,2.2E-16));
#260 = ORIENTED_EDGE('',*,*,#261,.T.);
#261 = EDGE_CURVE('',#254,#222,#262,.T.);
#262 = CIRCLE('',#263,65.);
#263 = AXIS2_PLACEMENT_3D('',#264,#265,#266);
#264 = CARTESIAN_POINT('',(0.,-30.,808.));
#265 = DIRECTION('',(0.,-1.,0.));
#266 = DIRECTION('',(1.,0.,0.));
#267 = ORIENTED_EDGE('',*,*,#229,.F.);
#268 = ORIENTED_EDGE('',*,*,#269,.F.);
#269 = EDGE_CURVE('',#252,#230,#270,.T.);
#270 = CIRCLE('',#271,65.);
#271 = AXIS2_PLACEMENT_3D('',#272,#273,#274);
#272 = CARTESIAN_POINT('',(0.,0.,808.));
#273 = DIRECTION('',(0.,-1.,0.));
#274 = DIRECTION('',(1.,0.,0.));
#275 = CYLINDRICAL_SURFACE('',#276,65.);
#276 = AXIS2_PLACEMENT_3D('',#277,#278,#279);
#277 = CARTESIAN_POINT('',(0.,1.7941E-13,808.));
#278 = DIRECTION('',(0.,1.,-2.2E-16));
#279 = DIRECTION('',(1.,0.,0.));
#280 = ADVANCED_FACE('',(#281),#306,.T.);
#281 = FACE_BOUND('',#282,.T.);
#282 = EDGE_LOOP('',(#283,#284,#292,#300));
#283 = ORIENTED_EDGE('',*,*,#251,.T.);
#284 = ORIENTED_EDGE('',*,*,#285,.T.);
#285 = EDGE_CURVE('',#254,#286,#288,.T.);
#286 = VERTEX_POINT('',#287);
#287 = CARTESIAN_POINT('',(80.384615384615,-30.,827.70567454992));
#288 = LINE('',#289,#290);
#289 = CARTESIAN_POINT('',(40.,-30.,859.23475382979));
#290 = VECTOR('',#291,1.);
#291 = DIRECTION('',(0.788226981997,0.,-0.615384615385));
#292 = ORIENTED_EDGE('',*,*,#293,.F.);
#293 = EDGE_CURVE('',#294,#286,#296,.T.);
#294 = VERTEX_POINT('',#295);
#295 = CARTESIAN_POINT('',(80.384615384615,1.84E-13,827.70567454992));
#296 = LINE('',#297,#298);
#297 = CARTESIAN_POINT('',(80.384615384615,1.8379E-13,827.70567454992));
#298 = VECTOR('',#299,1.);
#299 = DIRECTION('',(0.,-1.,2.2E-16));
#300 = ORIENTED_EDGE('',*,*,#301,.F.);
#301 = EDGE_CURVE('',#252,#294,#302,.T.);
#302 = LINE('',#303,#304);
#303 = CARTESIAN_POINT('',(40.,0.,859.23475382979));
#304 = VECTOR('',#305,1.);
#305 = DIRECTION('',(0.788226981997,0.,-0.615384615385));
#306 = PLANE('',#307);
#307 = AXIS2_PLACEMENT_3D('',#308,#309,#310);
#308 = CARTESIAN_POINT('',(40.,1.9079E-13,859.23475382979));
#309 = DIRECTION('',(0.615384615385,1.8E-16,0.788226981997));
#310 = DIRECTION('',(0.788226981997,-1.4E-16,-0.615384615385));
#311 = ADVANCED_FACE('',(#312),#339,.T.);
#312 = FACE_BOUND('',#313,.F.);
#313 = EDGE_LOOP('',(#314,#324,#331,#332));
#314 = ORIENTED_EDGE('',*,*,#315,.T.);
#315 = EDGE_CURVE('',#316,#318,#320,.T.);
#316 = VERTEX_POINT('',#317);
#317 = CARTESIAN_POINT('',(90.,1.79E-13,808.));
#318 = VERTEX_POINT('',#319);
#319 = CARTESIAN_POINT('',(90.,-30.,808.));
#320 = LINE('',#321,#322);
#321 = CARTESIAN_POINT('',(90.,1.7941E-13,808.));
#322 = VECTOR('',#323,1.);
#323 = DIRECTION('',(0.,-1.,2.2E-16));
#324 = ORIENTED_EDGE('',*,*,#325,.T.);
#325 = EDGE_CURVE('',#318,#286,#326,.T.);
#326 = CIRCLE('',#327,25.);
#327 = AXIS2_PLACEMENT_3D('',#328,#329,#330);
#328 = CARTESIAN_POINT('',(65.,-30.,808.));
#329 = DIRECTION('',(0.,-1.,0.));
#330 = DIRECTION('',(1.,0.,0.));
#331 = ORIENTED_EDGE('',*,*,#293,.F.);
#332 = ORIENTED_EDGE('',*,*,#333,.F.);
#333 = EDGE_CURVE('',#316,#294,#334,.T.);
#334 = CIRCLE('',#335,25.);
#335 = AXIS2_PLACEMENT_3D('',#336,#337,#338);
#336 = CARTESIAN_POINT('',(65.,0.,808.));
#337 = DIRECTION('',(0.,-1.,0.));
#338 = DIRECTION('',(1.,0.,0.));
#339 = CYLINDRICAL_SURFACE('',#340,25.);
#340 = AXIS2_PLACEMENT_3D('',#341,#342,#343);
#341 = CARTESIAN_POINT('',(65.,1.7941E-13,808.));
#342 = DIRECTION('',(0.,1.,-2.2E-16));
#343 = DIRECTION('',(1.,0.,0.));
#344 = ADVANCED_FACE('',(#345),#370,.T.);
#345 = FACE_BOUND('',#346,.T.);
#346 = EDGE_LOOP('',(#347,#348,#356,#364));
#347 = ORIENTED_EDGE('',*,*,#315,.T.);
#348 = ORIENTED_EDGE('',*,*,#349,.T.);
#349 = EDGE_CURVE('',#318,#350,#352,.T.);
#350 = VERTEX_POINT('',#351);
#351 = CARTESIAN_POINT('',(90.,-30.,353.8477631085));
#352 = LINE('',#353,#354);
#353 = CARTESIAN_POINT('',(90.,-30.,808.));
#354 = VECTOR('',#355,1.);
#355 = DIRECTION('',(0.,0.,-1.));
#356 = ORIENTED_EDGE('',*,*,#357,.F.);
#357 = EDGE_CURVE('',#358,#350,#360,.T.);
#358 = VERTEX_POINT('',#359);
#359 = CARTESIAN_POINT('',(90.,7.9E-14,353.8477631085));
#360 = LINE('',#361,#362);
#361 = CARTESIAN_POINT('',(90.,7.857E-14,353.8477631085));
#362 = VECTOR('',#363,1.);
#363 = DIRECTION('',(0.,-1.,2.2E-16));
#364 = ORIENTED_EDGE('',*,*,#365,.F.);
#365 = EDGE_CURVE('',#316,#358,#366,.T.);
#366 = LINE('',#367,#368);
#367 = CARTESIAN_POINT('',(90.,0.,808.));
#368 = VECTOR('',#369,1.);
#369 = DIRECTION('',(0.,0.,-1.));
#370 = PLANE('',#371);
#371 = AXIS2_PLACEMENT_3D('',#372,#373,#374);
#372 = CARTESIAN_POINT('',(90.,1.7941E-13,808.));
#373 = DIRECTION('',(1.,0.,0.));
#374 = DIRECTION('',(0.,-2.2E-16,-1.));
#375 = ADVANCED_FACE('',(#376),#401,.T.);
#376 = FACE_BOUND('',#377,.T.);
#377 = EDGE_LOOP('',(#378,#379,#387,#395));
#378 = ORIENTED_EDGE('',*,*,#357,.T.);
#379 = ORIENTED_EDGE('',*,*,#380,.T.);
#380 = EDGE_CURVE('',#350,#381,#383,.T.);
#381 = VERTEX_POINT('',#382);
#382 = CARTESIAN_POINT('',(200.96194077712,-30.,242.88582233137));
#383 = LINE('',#384,#385);
#384 = CARTESIAN_POINT('',(90.,-30.,353.8477631085));
#385 = VECTOR('',#386,1.);
#386 = DIRECTION('',(0.707106781187,0.,-0.707106781187));
#387 = ORIENTED_EDGE('',*,*,#388,.F.);
#388 = EDGE_CURVE('',#389,#381,#391,.T.);
#389 = VERTEX_POINT('',#390);
#390 = CARTESIAN_POINT('',(200.96194077712,5.4E-14,242.88582233137));
#391 = LINE('',#392,#393);
#392 = CARTESIAN_POINT('',(200.96194077712,5.393E-14,242.88582233137));
#393 = VECTOR('',#394,1.);
#394 = DIRECTION('',(0.,-1.,2.2E-16));
#395 = ORIENTED_EDGE('',*,*,#396,.F.);
#396 = EDGE_CURVE('',#358,#389,#397,.T.);
#397 = LINE('',#398,#399);
#398 = CARTESIAN_POINT('',(90.,0.,353.8477631085));
#399 = VECTOR('',#400,1.);
#400 = DIRECTION('',(0.707106781187,0.,-0.707106781187));
#401 = PLANE('',#402);
#402 = AXIS2_PLACEMENT_3D('',#403,#404,#405);
#403 = CARTESIAN_POINT('',(90.,7.857E-14,353.8477631085));
#404 = DIRECTION('',(0.707106781187,1.6E-16,0.707106781187));
#405 = DIRECTION('',(0.707106781187,-1.6E-16,-0.707106781187));
#406 = ADVANCED_FACE('',(#407),#434,.T.);
#407 = FACE_BOUND('',#408,.F.);
#408 = EDGE_LOOP('',(#409,#419,#426,#427));
#409 = ORIENTED_EDGE('',*,*,#410,.T.);
#410 = EDGE_CURVE('',#411,#413,#415,.T.);
#411 = VERTEX_POINT('',#412);
#412 = CARTESIAN_POINT('',(200.96194077712,3.4E-14,150.96194077712));
#413 = VERTEX_POINT('',#414);
#414 = CARTESIAN_POINT('',(200.96194077712,-30.,150.96194077712));
#415 = LINE('',#416,#417);
#416 = CARTESIAN_POINT('',(200.96194077712,3.352E-14,150.96194077712));
#417 = VECTOR('',#418,1.);
#418 = DIRECTION('',(0.,-1.,2.2E-16));
#419 = ORIENTED_EDGE('',*,*,#420,.T.);
#420 = EDGE_CURVE('',#413,#381,#421,.T.);
#421 = CIRCLE('',#422,65.);
#422 = AXIS2_PLACEMENT_3D('',#423,#424,#425);
#423 = CARTESIAN_POINT('',(155.,-30.,196.92388155425));
#424 = DIRECTION('',(0.,-1.,0.));
#425 = DIRECTION('',(1.,0.,0.));
#426 = ORIENTED_EDGE('',*,*,#388,.F.);
#427 = ORIENTED_EDGE('',*,*,#428,.F.);
#428 = EDGE_CURVE('',#411,#389,#429,.T.);
#429 = CIRCLE('',#430,65.);
#430 = AXIS2_PLACEMENT_3D('',#431,#432,#433);
#431 = CARTESIAN_POINT('',(155.,0.,196.92388155425));
#432 = DIRECTION('',(0.,-1.,0.));
#433 = DIRECTION('',(1.,0.,0.));
#434 = CYLINDRICAL_SURFACE('',#435,65.);
#435 = AXIS2_PLACEMENT_3D('',#436,#437,#438);
#436 = CARTESIAN_POINT('',(155.,4.373E-14,196.92388155425));
#437 = DIRECTION('',(0.,1.,-2.2E-16));
#438 = DIRECTION('',(1.,0.,0.));
#439 = ADVANCED_FACE('',(#440),#456,.F.);
#440 = FACE_BOUND('',#441,.F.);
#441 = EDGE_LOOP('',(#442,#443,#449,#450));
#442 = ORIENTED_EDGE('',*,*,#85,.T.);
#443 = ORIENTED_EDGE('',*,*,#444,.T.);
#444 = EDGE_CURVE('',#88,#413,#445,.T.);
#445 = LINE('',#446,#447);
#446 = CARTESIAN_POINT('',(90.,-30.,40.));
#447 = VECTOR('',#448,1.);
#448 = DIRECTION('',(0.707106781187,0.,0.707106781187));
#449 = ORIENTED_EDGE('',*,*,#410,.F.);
#450 = ORIENTED_EDGE('',*,*,#451,.F.);
#451 = EDGE_CURVE('',#86,#411,#452,.T.);
#452 = LINE('',#453,#454);
#453 = CARTESIAN_POINT('',(90.,0.,40.));
#454 = VECTOR('',#455,1.);
#455 = DIRECTION('',(0.707106781187,0.,0.707106781187));
#456 = PLANE('',#457);
#457 = AXIS2_PLACEMENT_3D('',#458,#459,#460);
#458 = CARTESIAN_POINT('',(90.,8.88E-15,40.));
#459 = DIRECTION('',(-0.707106781187,1.6E-16,0.707106781187));
#460 = DIRECTION('',(0.707106781187,1.6E-16,0.707106781187));
#461 = ADVANCED_FACE('',(#462),#489,.F.);
#462 = FACE_BOUND('',#463,.T.);
#463 = EDGE_LOOP('',(#464,#474,#481,#482));
#464 = ORIENTED_EDGE('',*,*,#465,.T.);
#465 = EDGE_CURVE('',#466,#468,#470,.T.);
#466 = VERTEX_POINT('',#467);
#467 = CARTESIAN_POINT('',(30.,1.79E-13,808.));
#468 = VERTEX_POINT('',#469);
#469 = CARTESIAN_POINT('',(30.,-30.,808.));
#470 = LINE('',#471,#472);
#471 = CARTESIAN_POINT('',(30.,1.7941E-13,808.));
#472 = VECTOR('',#473,1.);
#473 = DIRECTION('',(0.,-1.,2.2E-16));
#474 = ORIENTED_EDGE('',*,*,#475,.T.);
#475 = EDGE_CURVE('',#468,#468,#476,.T.);
#476 = CIRCLE('',#477,30.);
#477 = AXIS2_PLACEMENT_3D('',#478,#479,#480);
#478 = CARTESIAN_POINT('',(0.,-30.,808.));
#479 = DIRECTION('',(0.,-1.,0.));
#480 = DIRECTION('',(1.,0.,0.));
#481 = ORIENTED_EDGE('',*,*,#465,.F.);
#482 = ORIENTED_EDGE('',*,*,#483,.F.);
#483 = EDGE_CURVE('',#466,#466,#484,.T.);
#484 = CIRCLE('',#485,30.);
#485 = AXIS2_PLACEMENT_3D('',#486,#487,#488);
#486 = CARTESIAN_POINT('',(0.,0.,808.));
#487 = DIRECTION('',(0.,-1.,0.));
#488 = DIRECTION('',(1.,0.,0.));
#489 = CYLINDRICAL_SURFACE('',#490,30.);
#490 = AXIS2_PLACEMENT_3D('',#491,#492,#493);
#491 = CARTESIAN_POINT('',(0.,1.7941E-13,808.));
#492 = DIRECTION('',(0.,1.,-2.2E-16));
#493 = DIRECTION('',(1.,0.,0.));
#494 = ADVANCED_FACE('',(#495),#522,.F.);
#495 = FACE_BOUND('',#496,.T.);
#496 = EDGE_LOOP('',(#497,#507,#514,#515));
#497 = ORIENTED_EDGE('',*,*,#498,.T.);
#498 = EDGE_CURVE('',#499,#501,#503,.T.);
#499 = VERTEX_POINT('',#500);
#500 = CARTESIAN_POINT('',(185.,4.4E-14,196.92388155425));
#501 = VERTEX_POINT('',#502);
#502 = CARTESIAN_POINT('',(185.,-30.,196.92388155425));
#503 = LINE('',#504,#505);
#504 = CARTESIAN_POINT('',(185.,4.373E-14,196.92388155425));
#505 = VECTOR('',#506,1.);
#506 = DIRECTION('',(0.,-1.,2.2E-16));
#507 = ORIENTED_EDGE('',*,*,#508,.T.);
#508 = EDGE_CURVE('',#501,#501,#509,.T.);
#509 = CIRCLE('',#510,30.);
#510 = AXIS2_PLACEMENT_3D('',#511,#512,#513);
#511 = CARTESIAN_POINT('',(155.,-30.,196.92388155425));
#512 = DIRECTION('',(0.,-1.,0.));
#513 = DIRECTION('',(1.,0.,0.));
#514 = ORIENTED_EDGE('',*,*,#498,.F.);
#515 = ORIENTED_EDGE('',*,*,#516,.F.);
#516 = EDGE_CURVE('',#499,#499,#517,.T.);
#517 = CIRCLE('',#518,30.);
#518 = AXIS2_PLACEMENT_3D('',#519,#520,#521);
#519 = CARTESIAN_POINT('',(155.,0.,196.92388155425));
#520 = DIRECTION('',(0.,-1.,0.));
#521 = DIRECTION('',(1.,0.,0.));
#522 = CYLINDRICAL_SURFACE('',#523,30.);
#523 = AXIS2_PLACEMENT_3D('',#524,#525,#526);
#524 = CARTESIAN_POINT('',(155.,4.373E-14,196.92388155425));
#525 = DIRECTION('',(0.,1.,-2.2E-16));
#526 = DIRECTION('',(1.,0.,0.));
#527 = ADVANCED_FACE('',(#528,#542,#545),#548,.T.);
#528 = FACE_BOUND('',#529,.T.);
#529 = EDGE_LOOP('',(#530,#531,#532,#533,#534,#535,#536,#537,#538,#539,
    #540,#541));
#530 = ORIENTED_EDGE('',*,*,#111,.T.);
#531 = ORIENTED_EDGE('',*,*,#142,.T.);
#532 = ORIENTED_EDGE('',*,*,#173,.T.);
#533 = ORIENTED_EDGE('',*,*,#205,.F.);
#534 = ORIENTED_EDGE('',*,*,#237,.T.);
#535 = ORIENTED_EDGE('',*,*,#269,.F.);
#536 = ORIENTED_EDGE('',*,*,#301,.T.);
#537 = ORIENTED_EDGE('',*,*,#333,.F.);
#538 = ORIENTED_EDGE('',*,*,#365,.T.);
#539 = ORIENTED_EDGE('',*,*,#396,.T.);
#540 = ORIENTED_EDGE('',*,*,#428,.F.);
#541 = ORIENTED_EDGE('',*,*,#451,.F.);
#542 = FACE_BOUND('',#543,.T.);
#543 = EDGE_LOOP('',(#544));
#544 = ORIENTED_EDGE('',*,*,#483,.T.);
#545 = FACE_BOUND('',#546,.T.);
#546 = EDGE_LOOP('',(#547));
#547 = ORIENTED_EDGE('',*,*,#516,.T.);
#548 = PLANE('',#549);
#549 = AXIS2_PLACEMENT_3D('',#550,#551,#552);
#550 = CARTESIAN_POINT('',(25.796467468325,9.338E-14,420.5684391938));
#551 = DIRECTION('',(0.,1.,-2.2E-16));
#552 = DIRECTION('',(0.,2.2E-16,1.));
#553 = ADVANCED_FACE('',(#554,#568,#571),#574,.F.);
#554 = FACE_BOUND('',#555,.F.);
#555 = EDGE_LOOP('',(#556,#557,#558,#559,#560,#561,#562,#563,#564,#565,
    #566,#567));
#556 = ORIENTED_EDGE('',*,*,#95,.T.);
#557 = ORIENTED_EDGE('',*,*,#126,.T.);
#558 = ORIENTED_EDGE('',*,*,#157,.T.);
#559 = ORIENTED_EDGE('',*,*,#197,.F.);
#560 = ORIENTED_EDGE('',*,*,#221,.T.);
#561 = ORIENTED_EDGE('',*,*,#261,.F.);
#562 = ORIENTED_EDGE('',*,*,#285,.T.);
#563 = ORIENTED_EDGE('',*,*,#325,.F.);
#564 = ORIENTED_EDGE('',*,*,#349,.T.);
#565 = ORIENTED_EDGE('',*,*,#380,.T.);
#566 = ORIENTED_EDGE('',*,*,#420,.F.);
#567 = ORIENTED_EDGE('',*,*,#444,.F.);
#568 = FACE_BOUND('',#569,.F.);
#569 = EDGE_LOOP('',(#570));
#570 = ORIENTED_EDGE('',*,*,#475,.T.);
#571 = FACE_BOUND('',#572,.F.);
#572 = EDGE_LOOP('',(#573));
#573 = ORIENTED_EDGE('',*,*,#508,.T.);
#574 = PLANE('',#575);
#575 = AXIS2_PLACEMENT_3D('',#576,#577,#578);
#576 = CARTESIAN_POINT('',(25.796467468325,-30.,420.5684391938));
#577 = DIRECTION('',(0.,1.,-2.2E-16));
#578 = DIRECTION('',(0.,2.2E-16,1.));
#579 = ( GEOMETRIC_REPRESENTATION_CONTEXT(3) 
GLOBAL_UNCERTAINTY_ASSIGNED_CONTEXT((#583)) GLOBAL_UNIT_ASSIGNED_CONTEXT
((#580,#581,#582)) REPRESENTATION_CONTEXT('Context #1',
  '3D Context with UNIT and UNCERTAINTY') );
#580 = ( LENGTH_UNIT() NAMED_UNIT(*) SI_UNIT(.MILLI.,.METRE.) );
#581 = ( NAMED_UNIT(*) PLANE_ANGLE_UNIT() SI_UNIT($,.RADIAN.) );
#582 = ( NAMED_UNIT(*) SI_UNIT($,.STERADIAN.) SOLID_ANGLE_UNIT() );
#583 = UNCERTAINTY_MEASURE_WITH_UNIT(LENGTH_MEASURE(1.E-07),#580,
  'distance_accuracy_value','confusion accuracy');
#584 = CONTEXT_DEPENDENT_SHAPE_REPRESENTATION(#585,#587);
#585 = ( REPRESENTATION_RELATIONSHIP('','',#78,#10) 
REPRESENTATION_RELATIONSHIP_WITH_TRANSFORMATION(#586) 
SHAPE_REPRESENTATION_RELATIONSHIP() );
#586 = ITEM_DEFINED_TRANSFORMATION('','',#11,#15);
#587 = PRODUCT_DEFINITION_SHAPE('Placement','Placement of an item',#588
  );
#588 = NEXT_ASSEMBLY_USAGE_OCCURRENCE('1','Body','',#5,#73,$);
#589 = CC_DESIGN_SECURITY_CLASSIFICATION(#590,(#588));
#590 = SECURITY_CLASSIFICATION('','',#55);
#591 = CC_DESIGN_PERSON_AND_ORGANIZATION_ASSIGNMENT(#44,#53,(#590));
#592 = CC_DESIGN_DATE_AND_TIME_ASSIGNMENT(#58,#64,(#590));
#593 = CC_DESIGN_APPROVAL(#66,(#590));
#594 = PRODUCT_RELATED_PRODUCT_CATEGORY('detail',$,(#75));
#595 = PRODUCT_CATEGORY_RELATIONSHIP('','',#596,#594);
#596 = PRODUCT_CATEGORY('part',$);
#597 = CC_DESIGN_PERSON_AND_ORGANIZATION_ASSIGNMENT(#44,#47,(#74,#73));
#598 = CC_DESIGN_PERSON_AND_ORGANIZATION_ASSIGNMENT(#44,#49,(#75));
#599 = CC_DESIGN_PERSON_AND_ORGANIZATION_ASSIGNMENT(#44,#51,(#74));
#600 = CC_DESIGN_PERSON_AND_ORGANIZATION_ASSIGNMENT(#44,#53,(#601));
#601 = SECURITY_CLASSIFICATION('','',#55);
#602 = CC_DESIGN_SECURITY_CLASSIFICATION(#601,(#74));
#603 = CC_DESIGN_DATE_AND_TIME_ASSIGNMENT(#58,#62,(#73));
#604 = CC_DESIGN_DATE_AND_TIME_ASSIGNMENT(#58,#64,(#601));
#605 = CC_DESIGN_APPROVAL(#66,(#74,#73,#601));
#606 = SHAPE_DEFINITION_REPRESENTATION(#607,#613);
#607 = PRODUCT_DEFINITION_SHAPE('','',#608);
#608 = PRODUCT_DEFINITION('design','',#609,#612);
#609 = PRODUCT_DEFINITION_FORMATION_WITH_SPECIFIED_SOURCE('','',#610,
  .NOT_KNOWN.);
#610 = PRODUCT('Body','Body','',(#611));
#611 = MECHANICAL_CONTEXT('',#2,'mechanical');
#612 = DESIGN_CONTEXT('',#2,'design');
#613 = ADVANCED_BREP_SHAPE_REPRESENTATION('',(#11,#614),#1009);
#614 = MANIFOLD_SOLID_BREP('',#615);
#615 = CLOSED_SHELL('',(#616,#656,#689,#720,#753,#784,#817,#848,#879,
    #912,#934,#967,#988));
#616 = ADVANCED_FACE('',(#617),#651,.F.);
#617 = FACE_BOUND('',#618,.F.);
#618 = EDGE_LOOP('',(#619,#629,#637,#645));
#619 = ORIENTED_EDGE('',*,*,#620,.T.);
#620 = EDGE_CURVE('',#621,#623,#625,.T.);
#621 = VERTEX_POINT('',#622);
#622 = CARTESIAN_POINT('',(-90.,4.1E-14,185.));
#623 = VERTEX_POINT('',#624);
#624 = CARTESIAN_POINT('',(-90.,-25.,185.));
#625 = LINE('',#626,#627);
#626 = CARTESIAN_POINT('',(-90.,4.108E-14,185.));
#627 = VECTOR('',#628,1.);
#628 = DIRECTION('',(0.,-1.,2.2E-16));
#629 = ORIENTED_EDGE('',*,*,#630,.T.);
#630 = EDGE_CURVE('',#623,#631,#633,.T.);
#631 = VERTEX_POINT('',#632);
#632 = CARTESIAN_POINT('',(-90.,-25.,65.));
#633 = LINE('',#634,#635);
#634 = CARTESIAN_POINT('',(-90.,-25.,185.));
#635 = VECTOR('',#636,1.);
#636 = DIRECTION('',(0.,0.,-1.));
#637 = ORIENTED_EDGE('',*,*,#638,.F.);
#638 = EDGE_CURVE('',#639,#631,#641,.T.);
#639 = VERTEX_POINT('',#640);
#640 = CARTESIAN_POINT('',(-90.,1.4E-14,65.));
#641 = LINE('',#642,#643);
#642 = CARTESIAN_POINT('',(-90.,1.443E-14,65.));
#643 = VECTOR('',#644,1.);
#644 = DIRECTION('',(0.,-1.,2.2E-16));
#645 = ORIENTED_EDGE('',*,*,#646,.F.);
#646 = EDGE_CURVE('',#621,#639,#647,.T.);
#647 = LINE('',#648,#649);
#648 = CARTESIAN_POINT('',(-90.,0.,185.));
#649 = VECTOR('',#650,1.);
#650 = DIRECTION('',(0.,0.,-1.));
#651 = PLANE('',#652);
#652 = AXIS2_PLACEMENT_3D('',#653,#654,#655);
#653 = CARTESIAN_POINT('',(-90.,4.108E-14,185.));
#654 = DIRECTION('',(1.,0.,0.));
#655 = DIRECTION('',(0.,-2.2E-16,-1.));
#656 = ADVANCED_FACE('',(#657),#684,.T.);
#657 = FACE_BOUND('',#658,.F.);
#658 = EDGE_LOOP('',(#659,#660,#669,#677));
#659 = ORIENTED_EDGE('',*,*,#638,.T.);
#660 = ORIENTED_EDGE('',*,*,#661,.T.);
#661 = EDGE_CURVE('',#631,#662,#664,.T.);
#662 = VERTEX_POINT('',#663);
#663 = CARTESIAN_POINT('',(-80.38461538461,-25.,45.294325450078));
#664 = CIRCLE('',#665,25.);
#665 = AXIS2_PLACEMENT_3D('',#666,#667,#668);
#666 = CARTESIAN_POINT('',(-65.,-25.,65.));
#667 = DIRECTION('',(0.,-1.,0.));
#668 = DIRECTION('',(1.,0.,0.));
#669 = ORIENTED_EDGE('',*,*,#670,.F.);
#670 = EDGE_CURVE('',#671,#662,#673,.T.);
#671 = VERTEX_POINT('',#672);
#672 = CARTESIAN_POINT('',(-80.38461538461,1.E-14,45.294325450078));
#673 = LINE('',#674,#675);
#674 = CARTESIAN_POINT('',(-80.38461538461,1.006E-14,45.294325450078));
#675 = VECTOR('',#676,1.);
#676 = DIRECTION('',(0.,-1.,2.2E-16));
#677 = ORIENTED_EDGE('',*,*,#678,.F.);
#678 = EDGE_CURVE('',#639,#671,#679,.T.);
#679 = CIRCLE('',#680,25.);
#680 = AXIS2_PLACEMENT_3D('',#681,#682,#683);
#681 = CARTESIAN_POINT('',(-65.,0.,65.));
#682 = DIRECTION('',(0.,-1.,0.));
#683 = DIRECTION('',(1.,0.,0.));
#684 = CYLINDRICAL_SURFACE('',#685,25.);
#685 = AXIS2_PLACEMENT_3D('',#686,#687,#688);
#686 = CARTESIAN_POINT('',(-65.,1.443E-14,65.));
#687 = DIRECTION('',(0.,1.,-2.2E-16));
#688 = DIRECTION('',(1.,0.,0.));
#689 = ADVANCED_FACE('',(#690),#715,.F.);
#690 = FACE_BOUND('',#691,.F.);
#691 = EDGE_LOOP('',(#692,#693,#701,#709));
#692 = ORIENTED_EDGE('',*,*,#670,.T.);
#693 = ORIENTED_EDGE('',*,*,#694,.T.);
#694 = EDGE_CURVE('',#662,#695,#697,.T.);
#695 = VERTEX_POINT('',#696);
#696 = CARTESIAN_POINT('',(-40.,-25.,13.765246170202));
#697 = LINE('',#698,#699);
#698 = CARTESIAN_POINT('',(-80.38461538461,-25.,45.294325450078));
#699 = VECTOR('',#700,1.);
#700 = DIRECTION('',(0.788226981997,0.,-0.615384615385));
#701 = ORIENTED_EDGE('',*,*,#702,.F.);
#702 = EDGE_CURVE('',#703,#695,#705,.T.);
#703 = VERTEX_POINT('',#704);
#704 = CARTESIAN_POINT('',(-40.,3.E-15,13.765246170202));
#705 = LINE('',#706,#707);
#706 = CARTESIAN_POINT('',(-40.,3.06E-15,13.765246170202));
#707 = VECTOR('',#708,1.);
#708 = DIRECTION('',(0.,-1.,2.2E-16));
#709 = ORIENTED_EDGE('',*,*,#710,.F.);
#710 = EDGE_CURVE('',#671,#703,#711,.T.);
#711 = LINE('',#712,#713);
#712 = CARTESIAN_POINT('',(-80.38461538461,0.,45.294325450078));
#713 = VECTOR('',#714,1.);
#714 = DIRECTION('',(0.788226981997,0.,-0.615384615385));
#715 = PLANE('',#716);
#716 = AXIS2_PLACEMENT_3D('',#717,#718,#719);
#717 = CARTESIAN_POINT('',(-80.38461538461,1.006E-14,45.294325450078));
#718 = DIRECTION('',(0.615384615385,1.8E-16,0.788226981997));
#719 = DIRECTION('',(0.788226981997,-1.4E-16,-0.615384615385));
#720 = ADVANCED_FACE('',(#721),#748,.T.);
#721 = FACE_BOUND('',#722,.F.);
#722 = EDGE_LOOP('',(#723,#724,#733,#741));
#723 = ORIENTED_EDGE('',*,*,#702,.T.);
#724 = ORIENTED_EDGE('',*,*,#725,.T.);
#725 = EDGE_CURVE('',#695,#726,#728,.T.);
#726 = VERTEX_POINT('',#727);
#727 = CARTESIAN_POINT('',(40.,-25.,13.765246170202));
#728 = CIRCLE('',#729,65.);
#729 = AXIS2_PLACEMENT_3D('',#730,#731,#732);
#730 = CARTESIAN_POINT('',(0.,-25.,65.));
#731 = DIRECTION('',(0.,-1.,0.));
#732 = DIRECTION('',(1.,0.,0.));
#733 = ORIENTED_EDGE('',*,*,#734,.F.);
#734 = EDGE_CURVE('',#735,#726,#737,.T.);
#735 = VERTEX_POINT('',#736);
#736 = CARTESIAN_POINT('',(40.,3.E-15,13.765246170202));
#737 = LINE('',#738,#739);
#738 = CARTESIAN_POINT('',(40.,3.06E-15,13.765246170202));
#739 = VECTOR('',#740,1.);
#740 = DIRECTION('',(0.,-1.,2.2E-16));
#741 = ORIENTED_EDGE('',*,*,#742,.F.);
#742 = EDGE_CURVE('',#703,#735,#743,.T.);
#743 = CIRCLE('',#744,65.);
#744 = AXIS2_PLACEMENT_3D('',#745,#746,#747);
#745 = CARTESIAN_POINT('',(0.,0.,65.));
#746 = DIRECTION('',(0.,-1.,0.));
#747 = DIRECTION('',(1.,0.,0.));
#748 = CYLINDRICAL_SURFACE('',#749,65.);
#749 = AXIS2_PLACEMENT_3D('',#750,#751,#752);
#750 = CARTESIAN_POINT('',(0.,1.443E-14,65.));
#751 = DIRECTION('',(0.,1.,-2.2E-16));
#752 = DIRECTION('',(1.,0.,0.));
#753 = ADVANCED_FACE('',(#754),#779,.T.);
#754 = FACE_BOUND('',#755,.T.);
#755 = EDGE_LOOP('',(#756,#766,#772,#773));
#756 = ORIENTED_EDGE('',*,*,#757,.T.);
#757 = EDGE_CURVE('',#758,#760,#762,.T.);
#758 = VERTEX_POINT('',#759);
#759 = CARTESIAN_POINT('',(80.384615384615,1.E-14,45.294325450078));
#760 = VERTEX_POINT('',#761);
#761 = CARTESIAN_POINT('',(80.384615384615,-25.,45.294325450078));
#762 = LINE('',#763,#764);
#763 = CARTESIAN_POINT('',(80.384615384615,1.006E-14,45.294325450078));
#764 = VECTOR('',#765,1.);
#765 = DIRECTION('',(0.,-1.,2.2E-16));
#766 = ORIENTED_EDGE('',*,*,#767,.T.);
#767 = EDGE_CURVE('',#760,#726,#768,.T.);
#768 = LINE('',#769,#770);
#769 = CARTESIAN_POINT('',(80.384615384615,-25.,45.294325450078));
#770 = VECTOR('',#771,1.);
#771 = DIRECTION('',(-0.788226981997,-0.,-0.615384615385));
#772 = ORIENTED_EDGE('',*,*,#734,.F.);
#773 = ORIENTED_EDGE('',*,*,#774,.F.);
#774 = EDGE_CURVE('',#758,#735,#775,.T.);
#775 = LINE('',#776,#777);
#776 = CARTESIAN_POINT('',(80.384615384615,0.,45.294325450078));
#777 = VECTOR('',#778,1.);
#778 = DIRECTION('',(-0.788226981997,-0.,-0.615384615385));
#779 = PLANE('',#780);
#780 = AXIS2_PLACEMENT_3D('',#781,#782,#783);
#781 = CARTESIAN_POINT('',(80.384615384615,1.006E-14,45.294325450078));
#782 = DIRECTION('',(0.615384615385,-1.8E-16,-0.788226981997));
#783 = DIRECTION('',(-0.788226981997,-1.4E-16,-0.615384615385));
#784 = ADVANCED_FACE('',(#785),#812,.T.);
#785 = FACE_BOUND('',#786,.F.);
#786 = EDGE_LOOP('',(#787,#788,#797,#805));
#787 = ORIENTED_EDGE('',*,*,#757,.T.);
#788 = ORIENTED_EDGE('',*,*,#789,.T.);
#789 = EDGE_CURVE('',#760,#790,#792,.T.);
#790 = VERTEX_POINT('',#791);
#791 = CARTESIAN_POINT('',(90.,-25.,65.));
#792 = CIRCLE('',#793,25.);
#793 = AXIS2_PLACEMENT_3D('',#794,#795,#796);
#794 = CARTESIAN_POINT('',(65.,-25.,65.));
#795 = DIRECTION('',(0.,-1.,0.));
#796 = DIRECTION('',(1.,0.,0.));
#797 = ORIENTED_EDGE('',*,*,#798,.F.);
#798 = EDGE_CURVE('',#799,#790,#801,.T.);
#799 = VERTEX_POINT('',#800);
#800 = CARTESIAN_POINT('',(90.,1.4E-14,65.));
#801 = LINE('',#802,#803);
#802 = CARTESIAN_POINT('',(90.,1.443E-14,65.));
#803 = VECTOR('',#804,1.);
#804 = DIRECTION('',(0.,-1.,2.2E-16));
#805 = ORIENTED_EDGE('',*,*,#806,.F.);
#806 = EDGE_CURVE('',#758,#799,#807,.T.);
#807 = CIRCLE('',#808,25.);
#808 = AXIS2_PLACEMENT_3D('',#809,#810,#811);
#809 = CARTESIAN_POINT('',(65.,0.,65.));
#810 = DIRECTION('',(0.,-1.,0.));
#811 = DIRECTION('',(1.,0.,0.));
#812 = CYLINDRICAL_SURFACE('',#813,25.);
#813 = AXIS2_PLACEMENT_3D('',#814,#815,#816);
#814 = CARTESIAN_POINT('',(65.,1.443E-14,65.));
#815 = DIRECTION('',(0.,1.,-2.2E-16));
#816 = DIRECTION('',(1.,0.,0.));
#817 = ADVANCED_FACE('',(#818),#843,.T.);
#818 = FACE_BOUND('',#819,.T.);
#819 = EDGE_LOOP('',(#820,#830,#836,#837));
#820 = ORIENTED_EDGE('',*,*,#821,.T.);
#821 = EDGE_CURVE('',#822,#824,#826,.T.);
#822 = VERTEX_POINT('',#823);
#823 = CARTESIAN_POINT('',(90.,4.1E-14,185.));
#824 = VERTEX_POINT('',#825);
#825 = CARTESIAN_POINT('',(90.,-25.,185.));
#826 = LINE('',#827,#828);
#827 = CARTESIAN_POINT('',(90.,4.108E-14,185.));
#828 = VECTOR('',#829,1.);
#829 = DIRECTION('',(0.,-1.,2.2E-16));
#830 = ORIENTED_EDGE('',*,*,#831,.T.);
#831 = EDGE_CURVE('',#824,#790,#832,.T.);
#832 = LINE('',#833,#834);
#833 = CARTESIAN_POINT('',(90.,-25.,185.));
#834 = VECTOR('',#835,1.);
#835 = DIRECTION('',(0.,0.,-1.));
#836 = ORIENTED_EDGE('',*,*,#798,.F.);
#837 = ORIENTED_EDGE('',*,*,#838,.F.);
#838 = EDGE_CURVE('',#822,#799,#839,.T.);
#839 = LINE('',#840,#841);
#840 = CARTESIAN_POINT('',(90.,0.,185.));
#841 = VECTOR('',#842,1.);
#842 = DIRECTION('',(0.,0.,-1.));
#843 = PLANE('',#844);
#844 = AXIS2_PLACEMENT_3D('',#845,#846,#847);
#845 = CARTESIAN_POINT('',(90.,4.108E-14,185.));
#846 = DIRECTION('',(1.,0.,0.));
#847 = DIRECTION('',(0.,-2.2E-16,-1.));
#848 = ADVANCED_FACE('',(#849),#874,.T.);
#849 = FACE_BOUND('',#850,.T.);
#850 = EDGE_LOOP('',(#851,#861,#867,#868));
#851 = ORIENTED_EDGE('',*,*,#852,.T.);
#852 = EDGE_CURVE('',#853,#855,#857,.T.);
#853 = VERTEX_POINT('',#854);
#854 = CARTESIAN_POINT('',(14.637263846109,5.3E-14,239.42864277781));
#855 = VERTEX_POINT('',#856);
#856 = CARTESIAN_POINT('',(14.637263846109,-25.,239.42864277781));
#857 = LINE('',#858,#859);
#858 = CARTESIAN_POINT('',(14.637263846109,5.316E-14,239.42864277781));
#859 = VECTOR('',#860,1.);
#860 = DIRECTION('',(0.,-1.,2.2E-16));
#861 = ORIENTED_EDGE('',*,*,#862,.T.);
#862 = EDGE_CURVE('',#855,#824,#863,.T.);
#863 = LINE('',#864,#865);
#864 = CARTESIAN_POINT('',(14.637263846109,-25.,239.42864277781));
#865 = VECTOR('',#866,1.);
#866 = DIRECTION('',(0.8106792284,0.,-0.585490553844));
#867 = ORIENTED_EDGE('',*,*,#821,.F.);
#868 = ORIENTED_EDGE('',*,*,#869,.F.);
#869 = EDGE_CURVE('',#853,#822,#870,.T.);
#870 = LINE('',#871,#872);
#871 = CARTESIAN_POINT('',(14.637263846109,0.,239.42864277781));
#872 = VECTOR('',#873,1.);
#873 = DIRECTION('',(0.8106792284,0.,-0.585490553844));
#874 = PLANE('',#875);
#875 = AXIS2_PLACEMENT_3D('',#876,#877,#878);
#876 = CARTESIAN_POINT('',(14.637263846109,5.316E-14,239.42864277781));
#877 = DIRECTION('',(0.585490553844,1.8E-16,0.8106792284));
#878 = DIRECTION('',(0.8106792284,-1.3E-16,-0.585490553844));
#879 = ADVANCED_FACE('',(#880),#907,.T.);
#880 = FACE_BOUND('',#881,.F.);
#881 = EDGE_LOOP('',(#882,#883,#892,#900));
#882 = ORIENTED_EDGE('',*,*,#852,.T.);
#883 = ORIENTED_EDGE('',*,*,#884,.T.);
#884 = EDGE_CURVE('',#855,#885,#887,.T.);
#885 = VERTEX_POINT('',#886);
#886 = CARTESIAN_POINT('',(-14.6372638461,-25.,239.42864277781));
#887 = CIRCLE('',#888,25.);
#888 = AXIS2_PLACEMENT_3D('',#889,#890,#891);
#889 = CARTESIAN_POINT('',(-1.06E-14,-25.,219.16166206781));
#890 = DIRECTION('',(0.,-1.,0.));
#891 = DIRECTION('',(1.,0.,0.));
#892 = ORIENTED_EDGE('',*,*,#893,.F.);
#893 = EDGE_CURVE('',#894,#885,#896,.T.);
#894 = VERTEX_POINT('',#895);
#895 = CARTESIAN_POINT('',(-14.6372638461,5.3E-14,239.42864277781));
#896 = LINE('',#897,#898);
#897 = CARTESIAN_POINT('',(-14.6372638461,5.316E-14,239.42864277781));
#898 = VECTOR('',#899,1.);
#899 = DIRECTION('',(0.,-1.,2.2E-16));
#900 = ORIENTED_EDGE('',*,*,#901,.F.);
#901 = EDGE_CURVE('',#853,#894,#902,.T.);
#902 = CIRCLE('',#903,25.);
#903 = AXIS2_PLACEMENT_3D('',#904,#905,#906);
#904 = CARTESIAN_POINT('',(-1.06E-14,0.,219.16166206781));
#905 = DIRECTION('',(0.,-1.,0.));
#906 = DIRECTION('',(1.,0.,0.));
#907 = CYLINDRICAL_SURFACE('',#908,25.);
#908 = AXIS2_PLACEMENT_3D('',#909,#910,#911);
#909 = CARTESIAN_POINT('',(-1.06E-14,4.866E-14,219.16166206781));
#910 = DIRECTION('',(0.,1.,-2.2E-16));
#911 = DIRECTION('',(1.,0.,0.));
#912 = ADVANCED_FACE('',(#913),#929,.T.);
#913 = FACE_BOUND('',#914,.T.);
#914 = EDGE_LOOP('',(#915,#916,#922,#923));
#915 = ORIENTED_EDGE('',*,*,#620,.T.);
#916 = ORIENTED_EDGE('',*,*,#917,.T.);
#917 = EDGE_CURVE('',#623,#885,#918,.T.);
#918 = LINE('',#919,#920);
#919 = CARTESIAN_POINT('',(-90.,-25.,185.));
#920 = VECTOR('',#921,1.);
#921 = DIRECTION('',(0.8106792284,0.,0.585490553844));
#922 = ORIENTED_EDGE('',*,*,#893,.F.);
#923 = ORIENTED_EDGE('',*,*,#924,.F.);
#924 = EDGE_CURVE('',#621,#894,#925,.T.);
#925 = LINE('',#926,#927);
#926 = CARTESIAN_POINT('',(-90.,0.,185.));
#927 = VECTOR('',#928,1.);
#928 = DIRECTION('',(0.8106792284,0.,0.585490553844));
#929 = PLANE('',#930);
#930 = AXIS2_PLACEMENT_3D('',#931,#932,#933);
#931 = CARTESIAN_POINT('',(-90.,4.108E-14,185.));
#932 = DIRECTION('',(-0.585490553844,1.8E-16,0.8106792284));
#933 = DIRECTION('',(0.8106792284,1.3E-16,0.585490553844));
#934 = ADVANCED_FACE('',(#935),#962,.F.);
#935 = FACE_BOUND('',#936,.T.);
#936 = EDGE_LOOP('',(#937,#947,#954,#955));
#937 = ORIENTED_EDGE('',*,*,#938,.T.);
#938 = EDGE_CURVE('',#939,#941,#943,.T.);
#939 = VERTEX_POINT('',#940);
#940 = CARTESIAN_POINT('',(30.,1.4E-14,65.));
#941 = VERTEX_POINT('',#942);
#942 = CARTESIAN_POINT('',(30.,-25.,65.));
#943 = LINE('',#944,#945);
#944 = CARTESIAN_POINT('',(30.,1.443E-14,65.));
#945 = VECTOR('',#946,1.);
#946 = DIRECTION('',(0.,-1.,2.2E-16));
#947 = ORIENTED_EDGE('',*,*,#948,.T.);
#948 = EDGE_CURVE('',#941,#941,#949,.T.);
#949 = CIRCLE('',#950,30.);
#950 = AXIS2_PLACEMENT_3D('',#951,#952,#953);
#951 = CARTESIAN_POINT('',(0.,-25.,65.));
#952 = DIRECTION('',(0.,-1.,0.));
#953 = DIRECTION('',(1.,0.,0.));
#954 = ORIENTED_EDGE('',*,*,#938,.F.);
#955 = ORIENTED_EDGE('',*,*,#956,.F.);
#956 = EDGE_CURVE('',#939,#939,#957,.T.);
#957 = CIRCLE('',#958,30.);
#958 = AXIS2_PLACEMENT_3D('',#959,#960,#961);
#959 = CARTESIAN_POINT('',(0.,0.,65.));
#960 = DIRECTION('',(0.,-1.,0.));
#961 = DIRECTION('',(1.,0.,0.));
#962 = CYLINDRICAL_SURFACE('',#963,30.);
#963 = AXIS2_PLACEMENT_3D('',#964,#965,#966);
#964 = CARTESIAN_POINT('',(0.,1.443E-14,65.));
#965 = DIRECTION('',(0.,1.,-2.2E-16));
#966 = DIRECTION('',(1.,0.,0.));
#967 = ADVANCED_FACE('',(#968,#980),#983,.T.);
#968 = FACE_BOUND('',#969,.F.);
#969 = EDGE_LOOP('',(#970,#971,#972,#973,#974,#975,#976,#977,#978,#979)
  );
#970 = ORIENTED_EDGE('',*,*,#646,.T.);
#971 = ORIENTED_EDGE('',*,*,#678,.T.);
#972 = ORIENTED_EDGE('',*,*,#710,.T.);
#973 = ORIENTED_EDGE('',*,*,#742,.T.);
#974 = ORIENTED_EDGE('',*,*,#774,.F.);
#975 = ORIENTED_EDGE('',*,*,#806,.T.);
#976 = ORIENTED_EDGE('',*,*,#838,.F.);
#977 = ORIENTED_EDGE('',*,*,#869,.F.);
#978 = ORIENTED_EDGE('',*,*,#901,.T.);
#979 = ORIENTED_EDGE('',*,*,#924,.F.);
#980 = FACE_BOUND('',#981,.T.);
#981 = EDGE_LOOP('',(#982));
#982 = ORIENTED_EDGE('',*,*,#956,.T.);
#983 = PLANE('',#984);
#984 = AXIS2_PLACEMENT_3D('',#985,#986,#987);
#985 = CARTESIAN_POINT('',(-8.1E-16,2.443E-14,110.02210004677));
#986 = DIRECTION('',(0.,1.,0.));
#987 = DIRECTION('',(0.,0.,1.));
#988 = ADVANCED_FACE('',(#989,#1001),#1004,.F.);
#989 = FACE_BOUND('',#990,.T.);
#990 = EDGE_LOOP('',(#991,#992,#993,#994,#995,#996,#997,#998,#999,#1000)
  );
#991 = ORIENTED_EDGE('',*,*,#630,.T.);
#992 = ORIENTED_EDGE('',*,*,#661,.T.);
#993 = ORIENTED_EDGE('',*,*,#694,.T.);
#994 = ORIENTED_EDGE('',*,*,#725,.T.);
#995 = ORIENTED_EDGE('',*,*,#767,.F.);
#996 = ORIENTED_EDGE('',*,*,#789,.T.);
#997 = ORIENTED_EDGE('',*,*,#831,.F.);
#998 = ORIENTED_EDGE('',*,*,#862,.F.);
#999 = ORIENTED_EDGE('',*,*,#884,.T.);
#1000 = ORIENTED_EDGE('',*,*,#917,.F.);
#1001 = FACE_BOUND('',#1002,.F.);
#1002 = EDGE_LOOP('',(#1003));
#1003 = ORIENTED_EDGE('',*,*,#948,.T.);
#1004 = PLANE('',#1005);
#1005 = AXIS2_PLACEMENT_3D('',#1006,#1007,#1008);
#1006 = CARTESIAN_POINT('',(-8.1E-16,-25.,110.02210004677));
#1007 = DIRECTION('',(0.,1.,0.));
#1008 = DIRECTION('',(0.,0.,1.));
#1009 = ( GEOMETRIC_REPRESENTATION_CONTEXT(3) 
GLOBAL_UNCERTAINTY_ASSIGNED_CONTEXT((#1013)) 
GLOBAL_UNIT_ASSIGNED_CONTEXT((#1010,#1011,#1012)) REPRESENTATION_CONTEXT
('Context #1','3D Context with UNIT and UNCERTAINTY') );
#1010 = ( LENGTH_UNIT() NAMED_UNIT(*) SI_UNIT(.MILLI.,.METRE.) );
#1011 = ( NAMED_UNIT(*) PLANE_ANGLE_UNIT() SI_UNIT($,.RADIAN.) );
#1012 = ( NAMED_UNIT(*) SI_UNIT($,.STERADIAN.) SOLID_ANGLE_UNIT() );
#1013 = UNCERTAINTY_MEASURE_WITH_UNIT(LENGTH_MEASURE(1.E-07),#1010,
  'distance_accuracy_value','confusion accuracy');
#1014 = CONTEXT_DEPENDENT_SHAPE_REPRESENTATION(#1015,#1017);
#1015 = ( REPRESENTATION_RELATIONSHIP('','',#613,#10) 
REPRESENTATION_RELATIONSHIP_WITH_TRANSFORMATION(#1016) 
SHAPE_REPRESENTATION_RELATIONSHIP() );
#1016 = ITEM_DEFINED_TRANSFORMATION('','',#11,#19);
#1017 = PRODUCT_DEFINITION_SHAPE('Placement','Placement of an item',
  #1018);
#1018 = NEXT_ASSEMBLY_USAGE_OCCURRENCE('2','Body001','',#5,#608,$);
#1019 = CC_DESIGN_SECURITY_CLASSIFICATION(#1020,(#1018));
#1020 = SECURITY_CLASSIFICATION('','',#55);
#1021 = CC_DESIGN_PERSON_AND_ORGANIZATION_ASSIGNMENT(#44,#53,(#1020));
#1022 = CC_DESIGN_DATE_AND_TIME_ASSIGNMENT(#58,#64,(#1020));
#1023 = CC_DESIGN_APPROVAL(#66,(#1020));
#1024 = PRODUCT_RELATED_PRODUCT_CATEGORY('detail',$,(#610));
#1025 = PRODUCT_CATEGORY_RELATIONSHIP('','',#1026,#1024);
#1026 = PRODUCT_CATEGORY('part',$);
#1027 = CC_DESIGN_PERSON_AND_ORGANIZATION_ASSIGNMENT(#44,#47,(#609,#608)
  );
#1028 = CC_DESIGN_PERSON_AND_ORGANIZATION_ASSIGNMENT(#44,#49,(#610));
#1029 = CC_DESIGN_PERSON_AND_ORGANIZATION_ASSIGNMENT(#44,#51,(#609));
#1030 = CC_DESIGN_PERSON_AND_ORGANIZATION_ASSIGNMENT(#44,#53,(#1031));
#1031 = SECURITY_CLASSIFICATION('','',#55);
#1032 = CC_DESIGN_SECURITY_CLASSIFICATION(#1031,(#609));
#1033 = CC_DESIGN_DATE_AND_TIME_ASSIGNMENT(#58,#62,(#608));
#1034 = CC_DESIGN_DATE_AND_TIME_ASSIGNMENT(#58,#64,(#1031));
#1035 = CC_DESIGN_APPROVAL(#66,(#609,#608,#1031));
#1036 = CONTEXT_DEPENDENT_SHAPE_REPRESENTATION(#1037,#1039);
#1037 = ( REPRESENTATION_RELATIONSHIP('','',#613,#10) 
REPRESENTATION_RELATIONSHIP_WITH_TRANSFORMATION(#1038) 
SHAPE_REPRESENTATION_RELATIONSHIP() );
#1038 = ITEM_DEFINED_TRANSFORMATION('','',#11,#23);
#1039 = PRODUCT_DEFINITION_SHAPE('Placement','Placement of an item',
  #1040);
#1040 = NEXT_ASSEMBLY_USAGE_OCCURRENCE('3','Body002','',#5,#608,$);
#1041 = SHAPE_DEFINITION_REPRESENTATION(#1042,#1048);
#1042 = PRODUCT_DEFINITION_SHAPE('','',#1043);
#1043 = PRODUCT_DEFINITION('design','',#1044,#1047);
#1044 = PRODUCT_DEFINITION_FORMATION_WITH_SPECIFIED_SOURCE('','',#1045,
  .NOT_KNOWN.);
#1045 = PRODUCT('Body','Body','',(#1046));
#1046 = MECHANICAL_CONTEXT('',#2,'mechanical');
#1047 = DESIGN_CONTEXT('',#2,'design');
#1048 = ADVANCED_BREP_SHAPE_REPRESENTATION('',(#11,#1049),#1267);
#1049 = MANIFOLD_SOLID_BREP('',#1050);
#1050 = CLOSED_SHELL('',(#1051,#1091,#1122,#1153,#1184,#1215,#1239,#1253
    ));
#1051 = ADVANCED_FACE('',(#1052),#1086,.T.);
#1052 = FACE_BOUND('',#1053,.T.);
#1053 = EDGE_LOOP('',(#1054,#1064,#1072,#1080));
#1054 = ORIENTED_EDGE('',*,*,#1055,.T.);
#1055 = EDGE_CURVE('',#1056,#1058,#1060,.T.);
#1056 = VERTEX_POINT('',#1057);
#1057 = CARTESIAN_POINT('',(14.637263846087,2.3E-14,104.42864277776));
#1058 = VERTEX_POINT('',#1059);
#1059 = CARTESIAN_POINT('',(14.637263846087,-45.,104.42864277776));
#1060 = LINE('',#1061,#1062);
#1061 = CARTESIAN_POINT('',(14.637263846087,2.319E-14,104.42864277776));
#1062 = VECTOR('',#1063,1.);
#1063 = DIRECTION('',(0.,-1.,2.2E-16));
#1064 = ORIENTED_EDGE('',*,*,#1065,.T.);
#1065 = EDGE_CURVE('',#1058,#1066,#1068,.T.);
#1066 = VERTEX_POINT('',#1067);
#1067 = CARTESIAN_POINT('',(90.,-45.,50.));
#1068 = LINE('',#1069,#1070);
#1069 = CARTESIAN_POINT('',(14.637263846087,-45.,104.42864277776));
#1070 = VECTOR('',#1071,1.);
#1071 = DIRECTION('',(0.8106792284,0.,-0.585490553844));
#1072 = ORIENTED_EDGE('',*,*,#1073,.F.);
#1073 = EDGE_CURVE('',#1074,#1066,#1076,.T.);
#1074 = VERTEX_POINT('',#1075);
#1075 = CARTESIAN_POINT('',(90.,1.1E-14,50.));
#1076 = LINE('',#1077,#1078);
#1077 = CARTESIAN_POINT('',(90.,1.11E-14,50.));
#1078 = VECTOR('',#1079,1.);
#1079 = DIRECTION('',(0.,-1.,2.2E-16));
#1080 = ORIENTED_EDGE('',*,*,#1081,.F.);
#1081 = EDGE_CURVE('',#1056,#1074,#1082,.T.);
#1082 = LINE('',#1083,#1084);
#1083 = CARTESIAN_POINT('',(14.637263846087,0.,104.42864277776));
#1084 = VECTOR('',#1085,1.);
#1085 = DIRECTION('',(0.8106792284,0.,-0.585490553844));
#1086 = PLANE('',#1087);
#1087 = AXIS2_PLACEMENT_3D('',#1088,#1089,#1090);
#1088 = CARTESIAN_POINT('',(14.637263846087,2.319E-14,104.42864277776));
#1089 = DIRECTION('',(0.585490553844,1.8E-16,0.8106792284));
#1090 = DIRECTION('',(0.8106792284,-1.3E-16,-0.585490553844));
#1091 = ADVANCED_FACE('',(#1092),#1117,.T.);
#1092 = FACE_BOUND('',#1093,.T.);
#1093 = EDGE_LOOP('',(#1094,#1095,#1103,#1111));
#1094 = ORIENTED_EDGE('',*,*,#1073,.T.);
#1095 = ORIENTED_EDGE('',*,*,#1096,.T.);
#1096 = EDGE_CURVE('',#1066,#1097,#1099,.T.);
#1097 = VERTEX_POINT('',#1098);
#1098 = CARTESIAN_POINT('',(90.,-45.,1.E-14));
#1099 = LINE('',#1100,#1101);
#1100 = CARTESIAN_POINT('',(90.,-45.,50.));
#1101 = VECTOR('',#1102,1.);
#1102 = DIRECTION('',(0.,0.,-1.));
#1103 = ORIENTED_EDGE('',*,*,#1104,.F.);
#1104 = EDGE_CURVE('',#1105,#1097,#1107,.T.);
#1105 = VERTEX_POINT('',#1106);
#1106 = CARTESIAN_POINT('',(90.,0.,0.));
#1107 = LINE('',#1108,#1109);
#1108 = CARTESIAN_POINT('',(90.,0.,0.));
#1109 = VECTOR('',#1110,1.);
#1110 = DIRECTION('',(0.,-1.,2.2E-16));
#1111 = ORIENTED_EDGE('',*,*,#1112,.F.);
#1112 = EDGE_CURVE('',#1074,#1105,#1113,.T.);
#1113 = LINE('',#1114,#1115);
#1114 = CARTESIAN_POINT('',(90.,0.,50.));
#1115 = VECTOR('',#1116,1.);
#1116 = DIRECTION('',(0.,0.,-1.));
#1117 = PLANE('',#1118);
#1118 = AXIS2_PLACEMENT_3D('',#1119,#1120,#1121);
#1119 = CARTESIAN_POINT('',(90.,1.11E-14,50.));
#1120 = DIRECTION('',(1.,0.,0.));
#1121 = DIRECTION('',(0.,-2.2E-16,-1.));
#1122 = ADVANCED_FACE('',(#1123),#1148,.T.);
#1123 = FACE_BOUND('',#1124,.T.);
#1124 = EDGE_LOOP('',(#1125,#1126,#1134,#1142));
#1125 = ORIENTED_EDGE('',*,*,#1104,.T.);
#1126 = ORIENTED_EDGE('',*,*,#1127,.T.);
#1127 = EDGE_CURVE('',#1097,#1128,#1130,.T.);
#1128 = VERTEX_POINT('',#1129);
#1129 = CARTESIAN_POINT('',(-90.,-45.,1.E-14));
#1130 = LINE('',#1131,#1132);
#1131 = CARTESIAN_POINT('',(90.,-45.,1.E-14));
#1132 = VECTOR('',#1133,1.);
#1133 = DIRECTION('',(-1.,0.,0.));
#1134 = ORIENTED_EDGE('',*,*,#1135,.F.);
#1135 = EDGE_CURVE('',#1136,#1128,#1138,.T.);
#1136 = VERTEX_POINT('',#1137);
#1137 = CARTESIAN_POINT('',(-90.,0.,0.));
#1138 = LINE('',#1139,#1140);
#1139 = CARTESIAN_POINT('',(-90.,0.,0.));
#1140 = VECTOR('',#1141,1.);
#1141 = DIRECTION('',(0.,-1.,2.2E-16));
#1142 = ORIENTED_EDGE('',*,*,#1143,.F.);
#1143 = EDGE_CURVE('',#1105,#1136,#1144,.T.);
#1144 = LINE('',#1145,#1146);
#1145 = CARTESIAN_POINT('',(90.,0.,0.));
#1146 = VECTOR('',#1147,1.);
#1147 = DIRECTION('',(-1.,0.,0.));
#1148 = PLANE('',#1149);
#1149 = AXIS2_PLACEMENT_3D('',#1150,#1151,#1152);
#1150 = CARTESIAN_POINT('',(90.,0.,0.));
#1151 = DIRECTION('',(-0.,-2.2E-16,-1.));
#1152 = DIRECTION('',(-1.,0.,0.));
#1153 = ADVANCED_FACE('',(#1154),#1179,.T.);
#1154 = FACE_BOUND('',#1155,.T.);
#1155 = EDGE_LOOP('',(#1156,#1157,#1165,#1173));
#1156 = ORIENTED_EDGE('',*,*,#1135,.T.);
#1157 = ORIENTED_EDGE('',*,*,#1158,.T.);
#1158 = EDGE_CURVE('',#1128,#1159,#1161,.T.);
#1159 = VERTEX_POINT('',#1160);
#1160 = CARTESIAN_POINT('',(-90.,-45.,50.));
#1161 = LINE('',#1162,#1163);
#1162 = CARTESIAN_POINT('',(-90.,-45.,1.E-14));
#1163 = VECTOR('',#1164,1.);
#1164 = DIRECTION('',(0.,0.,1.));
#1165 = ORIENTED_EDGE('',*,*,#1166,.F.);
#1166 = EDGE_CURVE('',#1167,#1159,#1169,.T.);
#1167 = VERTEX_POINT('',#1168);
#1168 = CARTESIAN_POINT('',(-90.,1.1E-14,50.));
#1169 = LINE('',#1170,#1171);
#1170 = CARTESIAN_POINT('',(-90.,1.11E-14,50.));
#1171 = VECTOR('',#1172,1.);
#1172 = DIRECTION('',(0.,-1.,2.2E-16));
#1173 = ORIENTED_EDGE('',*,*,#1174,.F.);
#1174 = EDGE_CURVE('',#1136,#1167,#1175,.T.);
#1175 = LINE('',#1176,#1177);
#1176 = CARTESIAN_POINT('',(-90.,0.,0.));
#1177 = VECTOR('',#1178,1.);
#1178 = DIRECTION('',(0.,0.,1.));
#1179 = PLANE('',#1180);
#1180 = AXIS2_PLACEMENT_3D('',#1181,#1182,#1183);
#1181 = CARTESIAN_POINT('',(-90.,0.,0.));
#1182 = DIRECTION('',(-1.,0.,0.));
#1183 = DIRECTION('',(0.,2.2E-16,1.));
#1184 = ADVANCED_FACE('',(#1185),#1210,.T.);
#1185 = FACE_BOUND('',#1186,.T.);
#1186 = EDGE_LOOP('',(#1187,#1188,#1196,#1204));
#1187 = ORIENTED_EDGE('',*,*,#1166,.T.);
#1188 = ORIENTED_EDGE('',*,*,#1189,.T.);
#1189 = EDGE_CURVE('',#1159,#1190,#1192,.T.);
#1190 = VERTEX_POINT('',#1191);
#1191 = CARTESIAN_POINT('',(-14.63726384614,-45.,104.42864277777));
#1192 = LINE('',#1193,#1194);
#1193 = CARTESIAN_POINT('',(-90.,-45.,50.));
#1194 = VECTOR('',#1195,1.);
#1195 = DIRECTION('',(0.8106792284,0.,0.585490553844));
#1196 = ORIENTED_EDGE('',*,*,#1197,.F.);
#1197 = EDGE_CURVE('',#1198,#1190,#1200,.T.);
#1198 = VERTEX_POINT('',#1199);
#1199 = CARTESIAN_POINT('',(-14.63726384614,2.3E-14,104.42864277777));
#1200 = LINE('',#1201,#1202);
#1201 = CARTESIAN_POINT('',(-14.63726384614,2.319E-14,104.42864277777));
#1202 = VECTOR('',#1203,1.);
#1203 = DIRECTION('',(0.,-1.,2.2E-16));
#1204 = ORIENTED_EDGE('',*,*,#1205,.F.);
#1205 = EDGE_CURVE('',#1167,#1198,#1206,.T.);
#1206 = LINE('',#1207,#1208);
#1207 = CARTESIAN_POINT('',(-90.,0.,50.));
#1208 = VECTOR('',#1209,1.);
#1209 = DIRECTION('',(0.8106792284,0.,0.585490553844));
#1210 = PLANE('',#1211);
#1211 = AXIS2_PLACEMENT_3D('',#1212,#1213,#1214);
#1212 = CARTESIAN_POINT('',(-90.,1.11E-14,50.));
#1213 = DIRECTION('',(-0.585490553844,1.8E-16,0.8106792284));
#1214 = DIRECTION('',(0.8106792284,1.3E-16,0.585490553844));
#1215 = ADVANCED_FACE('',(#1216),#1234,.T.);
#1216 = FACE_BOUND('',#1217,.F.);
#1217 = EDGE_LOOP('',(#1218,#1219,#1226,#1227));
#1218 = ORIENTED_EDGE('',*,*,#1055,.T.);
#1219 = ORIENTED_EDGE('',*,*,#1220,.T.);
#1220 = EDGE_CURVE('',#1058,#1190,#1221,.T.);
#1221 = CIRCLE('',#1222,25.);
#1222 = AXIS2_PLACEMENT_3D('',#1223,#1224,#1225);
#1223 = CARTESIAN_POINT('',(-3.456305E-11,-45.,84.161662067778));
#1224 = DIRECTION('',(0.,-1.,0.));
#1225 = DIRECTION('',(1.,0.,0.));
#1226 = ORIENTED_EDGE('',*,*,#1197,.F.);
#1227 = ORIENTED_EDGE('',*,*,#1228,.F.);
#1228 = EDGE_CURVE('',#1056,#1198,#1229,.T.);
#1229 = CIRCLE('',#1230,25.);
#1230 = AXIS2_PLACEMENT_3D('',#1231,#1232,#1233);
#1231 = CARTESIAN_POINT('',(-3.456305E-11,0.,84.161662067778));
#1232 = DIRECTION('',(0.,-1.,0.));
#1233 = DIRECTION('',(1.,0.,0.));
#1234 = CYLINDRICAL_SURFACE('',#1235,25.);
#1235 = AXIS2_PLACEMENT_3D('',#1236,#1237,#1238);
#1236 = CARTESIAN_POINT('',(-3.456305E-11,1.869E-14,84.161662067778));
#1237 = DIRECTION('',(0.,1.,-2.2E-16));
#1238 = DIRECTION('',(1.,0.,0.));
#1239 = ADVANCED_FACE('',(#1240),#1248,.T.);
#1240 = FACE_BOUND('',#1241,.T.);
#1241 = EDGE_LOOP('',(#1242,#1243,#1244,#1245,#1246,#1247));
#1242 = ORIENTED_EDGE('',*,*,#1081,.T.);
#1243 = ORIENTED_EDGE('',*,*,#1112,.T.);
#1244 = ORIENTED_EDGE('',*,*,#1143,.T.);
#1245 = ORIENTED_EDGE('',*,*,#1174,.T.);
#1246 = ORIENTED_EDGE('',*,*,#1205,.T.);
#1247 = ORIENTED_EDGE('',*,*,#1228,.F.);
#1248 = PLANE('',#1249);
#1249 = AXIS2_PLACEMENT_3D('',#1250,#1251,#1252);
#1250 = CARTESIAN_POINT('',(-2.77075E-12,9.02E-15,40.616173864482));
#1251 = DIRECTION('',(0.,1.,0.));
#1252 = DIRECTION('',(0.,0.,1.));
#1253 = ADVANCED_FACE('',(#1254),#1262,.F.);
#1254 = FACE_BOUND('',#1255,.F.);
#1255 = EDGE_LOOP('',(#1256,#1257,#1258,#1259,#1260,#1261));
#1256 = ORIENTED_EDGE('',*,*,#1065,.T.);
#1257 = ORIENTED_EDGE('',*,*,#1096,.T.);
#1258 = ORIENTED_EDGE('',*,*,#1127,.T.);
#1259 = ORIENTED_EDGE('',*,*,#1158,.T.);
#1260 = ORIENTED_EDGE('',*,*,#1189,.T.);
#1261 = ORIENTED_EDGE('',*,*,#1220,.F.);
#1262 = PLANE('',#1263);
#1263 = AXIS2_PLACEMENT_3D('',#1264,#1265,#1266);
#1264 = CARTESIAN_POINT('',(-2.77075E-12,-45.,40.616173864482));
#1265 = DIRECTION('',(0.,1.,0.));
#1266 = DIRECTION('',(0.,0.,1.));
#1267 = ( GEOMETRIC_REPRESENTATION_CONTEXT(3) 
GLOBAL_UNCERTAINTY_ASSIGNED_CONTEXT((#1271)) 
GLOBAL_UNIT_ASSIGNED_CONTEXT((#1268,#1269,#1270)) REPRESENTATION_CONTEXT
('Context #1','3D Context with UNIT and UNCERTAINTY') );
#1268 = ( LENGTH_UNIT() NAMED_UNIT(*) SI_UNIT(.MILLI.,.METRE.) );
#1269 = ( NAMED_UNIT(*) PLANE_ANGLE_UNIT() SI_UNIT($,.RADIAN.) );
#1270 = ( NAMED_UNIT(*) SI_UNIT($,.STERADIAN.) SOLID_ANGLE_UNIT() );
#1271 = UNCERTAINTY_MEASURE_WITH_UNIT(LENGTH_MEASURE(1.E-07),#1268,
  'distance_accuracy_value','confusion accuracy');
#1272 = CONTEXT_DEPENDENT_SHAPE_REPRESENTATION(#1273,#1275);
#1273 = ( REPRESENTATION_RELATIONSHIP('','',#1048,#10) 
REPRESENTATION_RELATIONSHIP_WITH_TRANSFORMATION(#1274) 
SHAPE_REPRESENTATION_RELATIONSHIP() );
#1274 = ITEM_DEFINED_TRANSFORMATION('','',#11,#27);
#1275 = PRODUCT_DEFINITION_SHAPE('Placement','Placement of an item',
  #1276);
#1276 = NEXT_ASSEMBLY_USAGE_OCCURRENCE('4','Body003','',#5,#1043,$);
#1277 = CC_DESIGN_SECURITY_CLASSIFICATION(#1278,(#1276));
#1278 = SECURITY_CLASSIFICATION('','',#55);
#1279 = CC_DESIGN_PERSON_AND_ORGANIZATION_ASSIGNMENT(#44,#53,(#1278));
#1280 = CC_DESIGN_DATE_AND_TIME_ASSIGNMENT(#58,#64,(#1278));
#1281 = CC_DESIGN_APPROVAL(#66,(#1278));
#1282 = PRODUCT_RELATED_PRODUCT_CATEGORY('detail',$,(#1045));
#1283 = PRODUCT_CATEGORY_RELATIONSHIP('','',#1284,#1282);
#1284 = PRODUCT_CATEGORY('part',$);
#1285 = CC_DESIGN_PERSON_AND_ORGANIZATION_ASSIGNMENT(#44,#47,(#1044,
    #1043));
#1286 = CC_DESIGN_PERSON_AND_ORGANIZATION_ASSIGNMENT(#44,#49,(#1045));
#1287 = CC_DESIGN_PERSON_AND_ORGANIZATION_ASSIGNMENT(#44,#51,(#1044));
#1288 = CC_DESIGN_PERSON_AND_ORGANIZATION_ASSIGNMENT(#44,#53,(#1289));
#1289 = SECURITY_CLASSIFICATION('','',#55);
#1290 = CC_DESIGN_SECURITY_CLASSIFICATION(#1289,(#1044));
#1291 = CC_DESIGN_DATE_AND_TIME_ASSIGNMENT(#58,#62,(#1043));
#1292 = CC_DESIGN_DATE_AND_TIME_ASSIGNMENT(#58,#64,(#1289));
#1293 = CC_DESIGN_APPROVAL(#66,(#1044,#1043,#1289));
#1294 = CONTEXT_DEPENDENT_SHAPE_REPRESENTATION(#1295,#1297);
#1295 = ( REPRESENTATION_RELATIONSHIP('','',#613,#10) 
REPRESENTATION_RELATIONSHIP_WITH_TRANSFORMATION(#1296) 
SHAPE_REPRESENTATION_RELATIONSHIP() );
#1296 = ITEM_DEFINED_TRANSFORMATION('','',#11,#31);
#1297 = PRODUCT_DEFINITION_SHAPE('Placement','Placement of an item',
  #1298);
#1298 = NEXT_ASSEMBLY_USAGE_OCCURRENCE('5','Body004','',#5,#608,$);
#1299 = MECHANICAL_DESIGN_GEOMETRIC_PRESENTATION_REPRESENTATION('',(
    #1300),#579);
#1300 = STYLED_ITEM('color',(#1301),#79);
#1301 = PRESENTATION_STYLE_ASSIGNMENT((#1302,#1308));
#1302 = SURFACE_STYLE_USAGE(.BOTH.,#1303);
#1303 = SURFACE_SIDE_STYLE('',(#1304));
#1304 = SURFACE_STYLE_FILL_AREA(#1305);
#1305 = FILL_AREA_STYLE('',(#1306));
#1306 = FILL_AREA_STYLE_COLOUR('',#1307);
#1307 = COLOUR_RGB('',0.447058818107,0.474509808674,0.501960817233);
#1308 = CURVE_STYLE('',#1309,POSITIVE_LENGTH_MEASURE(0.1),#1310);
#1309 = DRAUGHTING_PRE_DEFINED_CURVE_FONT('continuous');
#1310 = COLOUR_RGB('',9.803921802644E-02,9.803921802644E-02,
  9.803921802644E-02);
#1311 = MECHANICAL_DESIGN_GEOMETRIC_PRESENTATION_REPRESENTATION('',(
    #1312),#1267);
#1312 = STYLED_ITEM('color',(#1313),#1049);
#1313 = PRESENTATION_STYLE_ASSIGNMENT((#1314,#1319));
#1314 = SURFACE_STYLE_USAGE(.BOTH.,#1315);
#1315 = SURFACE_SIDE_STYLE('',(#1316));
#1316 = SURFACE_STYLE_FILL_AREA(#1317);
#1317 = FILL_AREA_STYLE('',(#1318));
#1318 = FILL_AREA_STYLE_COLOUR('',#1307);
#1319 = CURVE_STYLE('',#1320,POSITIVE_LENGTH_MEASURE(0.1),#1310);
#1320 = DRAUGHTING_PRE_DEFINED_CURVE_FONT('continuous');
#1321 = MECHANICAL_DESIGN_GEOMETRIC_PRESENTATION_REPRESENTATION('',(
    #1322),#1009);
#1322 = STYLED_ITEM('color',(#1323),#614);
#1323 = PRESENTATION_STYLE_ASSIGNMENT((#1324,#1329));
#1324 = SURFACE_STYLE_USAGE(.BOTH.,#1325);
#1325 = SURFACE_SIDE_STYLE('',(#1326));
#1326 = SURFACE_STYLE_FILL_AREA(#1327);
#1327 = FILL_AREA_STYLE('',(#1328));
#1328 = FILL_AREA_STYLE_COLOUR('',#1307);
#1329 = CURVE_STYLE('',#1330,POSITIVE_LENGTH_MEASURE(0.1),#1310);
#1330 = DRAUGHTING_PRE_DEFINED_CURVE_FONT('continuous');
ENDSEC;
END-ISO-10303-21;
